<svg xmlns="http://www.w3.org/2000/svg" viewBox="0 0 100 100">
  <path fill="#C93C20" d="M50 5C35 5 25 15 20 25C15 35 15 45 20 55L15 60C10 55 5 60 5 70C5 80 15 85 20 80L25 75C30 85 40 95 50 95C60 95 70 85 75 75L80 80C85 85 95 80 95 70C95 60 90 55 85 60L80 55C85 45 85 35 80 25C75 15 65 5 50 5ZM35 40C38 40 40 43 40 47C40 51 38 55 35 55C32 55 30 51 30 47C30 43 32 40 35 40ZM65 40C68 40 70 43 70 47C70 51 68 55 65 55C62 55 60 51 60 47C60 43 62 40 65 40ZM50 60C45 60 40 65 40 70C45 75 55 75 60 70C60 65 55 60 50 60Z"/>
</svg>
